<svg width="361" height="361" viewBox="0 0 361 361" fill="none" xmlns="http://www.w3.org/2000/svg">
<path d="M180.5 0C141.298 -4.67474e-07 103.162 12.7624 71.8572 36.3578C40.5519 59.9532 17.7792 93.0988 6.98177 130.784L57.0225 145.122C64.7061 118.304 80.9114 94.7176 103.189 77.9268C125.466 61.1361 152.604 52.0542 180.5 52.0542V0Z" fill="#F06500"/>
<path d="M6.82076 131.35C-1.68232 161.396 -2.24495 193.135 5.18786 223.464C12.6207 253.793 27.7946 281.675 49.2269 304.386L87.0847 268.658C71.8332 252.497 61.0352 232.656 55.746 211.074C50.4567 189.491 50.8571 166.906 56.908 145.524L6.82076 131.35Z" fill="#8B35E2"/>
<path d="M48.3089 303.405C76.9311 334.19 115.4 354.02 157.08 359.474L163.834 307.86C134.174 303.979 106.799 289.868 86.4314 267.961L48.3089 303.405Z" fill="#00B2FF"/>
<path d="M180.5 0C217.867 4.45597e-07 254.313 11.5971 284.809 33.1911C315.305 54.7851 338.347 85.3114 350.756 120.558L301.656 137.844C292.826 112.763 276.428 91.0399 254.727 75.6734C233.026 60.3069 207.091 52.0542 180.5 52.0542V0Z" fill="#00E396"/>
<path d="M350.031 118.536C358.168 140.799 361.841 164.447 360.839 188.13C359.837 211.812 354.18 235.065 344.191 256.562C334.203 278.058 320.078 297.376 302.624 313.414C285.169 329.451 264.727 341.894 242.464 350.031L224.594 301.14C240.437 295.35 254.984 286.495 267.405 275.083C279.825 263.67 289.877 249.923 296.985 234.626C304.093 219.329 308.118 202.782 308.831 185.929C309.544 169.077 306.931 152.249 301.14 136.406L350.031 118.536Z" fill="#FF4560"/>
<path d="M242.338 350.077C215.063 360.023 185.792 363.243 157.007 359.465L163.782 307.853C184.266 310.542 205.095 308.25 224.505 301.173L242.338 350.077Z" fill="#FFA800"/>
<g filter="url(#filter0_d_34717_10544)">
<path d="M256.708 51.2578C256.768 50.0578 257.188 49.1338 257.968 48.4858C258.76 47.8258 259.798 47.4958 261.082 47.4958C261.958 47.4958 262.708 47.6518 263.332 47.9638C263.956 48.2638 264.424 48.6778 264.736 49.2058C265.06 49.7218 265.222 50.3098 265.222 50.9698C265.222 51.7258 265.024 52.3678 264.628 52.8958C264.244 53.4118 263.782 53.7598 263.242 53.9398V54.0118C263.938 54.2278 264.478 54.6118 264.862 55.1638C265.258 55.7158 265.456 56.4238 265.456 57.2878C265.456 58.0078 265.288 58.6498 264.952 59.2138C264.628 59.7778 264.142 60.2218 263.494 60.5458C262.858 60.8578 262.09 61.0138 261.19 61.0138C259.834 61.0138 258.73 60.6718 257.878 59.9878C257.026 59.3038 256.576 58.2958 256.528 56.9638H258.976C259 57.5518 259.198 58.0258 259.57 58.3858C259.954 58.7338 260.476 58.9078 261.136 58.9078C261.748 58.9078 262.216 58.7398 262.54 58.4038C262.876 58.0558 263.044 57.6118 263.044 57.0718C263.044 56.3518 262.816 55.8358 262.36 55.5238C261.904 55.2118 261.196 55.0558 260.236 55.0558H259.714V52.9858H260.236C261.94 52.9858 262.792 52.4158 262.792 51.2758C262.792 50.7598 262.636 50.3578 262.324 50.0698C262.024 49.7818 261.586 49.6378 261.01 49.6378C260.446 49.6378 260.008 49.7938 259.696 50.1058C259.396 50.4058 259.222 50.7898 259.174 51.2578H256.708ZM276.267 49.9798H270.435V53.0578C270.687 52.7458 271.047 52.4938 271.515 52.3018C271.983 52.0978 272.481 51.9958 273.009 51.9958C273.969 51.9958 274.755 52.2058 275.367 52.6258C275.979 53.0458 276.423 53.5858 276.699 54.2458C276.975 54.8938 277.113 55.5898 277.113 56.3338C277.113 57.7138 276.717 58.8238 275.925 59.6638C275.145 60.5038 274.029 60.9238 272.577 60.9238C271.209 60.9238 270.117 60.5818 269.301 59.8978C268.485 59.2138 268.023 58.3198 267.915 57.2158H270.363C270.471 57.6958 270.711 58.0798 271.083 58.3678C271.467 58.6558 271.953 58.7998 272.541 58.7998C273.249 58.7998 273.783 58.5778 274.143 58.1338C274.503 57.6898 274.683 57.1018 274.683 56.3698C274.683 55.6258 274.497 55.0618 274.125 54.6778C273.765 54.2818 273.231 54.0838 272.523 54.0838C272.019 54.0838 271.599 54.2098 271.263 54.4618C270.927 54.7138 270.687 55.0498 270.543 55.4698H268.131V47.7658H276.267V49.9798ZM278.743 51.0238C278.743 50.1118 279.007 49.3978 279.535 48.8818C280.075 48.3658 280.765 48.1078 281.605 48.1078C282.445 48.1078 283.129 48.3658 283.657 48.8818C284.197 49.3978 284.467 50.1118 284.467 51.0238C284.467 51.9478 284.197 52.6678 283.657 53.1838C283.129 53.6998 282.445 53.9578 281.605 53.9578C280.765 53.9578 280.075 53.6998 279.535 53.1838C279.007 52.6678 278.743 51.9478 278.743 51.0238ZM290.299 48.3238L283.225 60.9238H280.777L287.833 48.3238H290.299ZM281.587 49.6198C280.927 49.6198 280.597 50.0878 280.597 51.0238C280.597 51.9718 280.927 52.4458 281.587 52.4458C281.911 52.4458 282.163 52.3318 282.343 52.1038C282.523 51.8638 282.613 51.5038 282.613 51.0238C282.613 50.0878 282.271 49.6198 281.587 49.6198ZM286.645 58.2058C286.645 57.2818 286.909 56.5678 287.437 56.0638C287.977 55.5478 288.667 55.2898 289.507 55.2898C290.347 55.2898 291.025 55.5478 291.541 56.0638C292.069 56.5678 292.333 57.2818 292.333 58.2058C292.333 59.1298 292.069 59.8498 291.541 60.3658C291.025 60.8818 290.347 61.1398 289.507 61.1398C288.655 61.1398 287.965 60.8818 287.437 60.3658C286.909 59.8498 286.645 59.1298 286.645 58.2058ZM289.489 56.8018C288.805 56.8018 288.463 57.2698 288.463 58.2058C288.463 59.1538 288.805 59.6278 289.489 59.6278C290.161 59.6278 290.497 59.1538 290.497 58.2058C290.497 57.2698 290.161 56.8018 289.489 56.8018Z" fill="white"/>
</g>
<g filter="url(#filter1_d_34717_10544)">
<path d="M303.341 250.901V248.921L309.227 240.497H312.161V248.705H313.745V250.901H312.161V253.457H309.641V250.901H303.341ZM309.803 243.197L306.113 248.705H309.803V243.197ZM317.546 246.509C316.346 245.885 315.746 244.919 315.746 243.611C315.746 242.963 315.908 242.375 316.232 241.847C316.568 241.307 317.066 240.881 317.726 240.569C318.398 240.245 319.214 240.083 320.174 240.083C321.134 240.083 321.944 240.245 322.604 240.569C323.276 240.881 323.774 241.307 324.098 241.847C324.434 242.375 324.602 242.963 324.602 243.611C324.602 244.271 324.44 244.853 324.116 245.357C323.792 245.849 323.36 246.233 322.82 246.509C323.48 246.797 323.996 247.217 324.368 247.769C324.74 248.321 324.926 248.975 324.926 249.731C324.926 250.547 324.716 251.261 324.296 251.873C323.888 252.473 323.324 252.935 322.604 253.259C321.884 253.583 321.074 253.745 320.174 253.745C319.274 253.745 318.464 253.583 317.744 253.259C317.036 252.935 316.472 252.473 316.052 251.873C315.644 251.261 315.44 250.547 315.44 249.731C315.44 248.975 315.626 248.321 315.998 247.769C316.37 247.205 316.886 246.785 317.546 246.509ZM322.154 243.971C322.154 243.383 321.974 242.927 321.614 242.603C321.266 242.279 320.786 242.117 320.174 242.117C319.574 242.117 319.094 242.279 318.734 242.603C318.386 242.927 318.212 243.389 318.212 243.989C318.212 244.529 318.392 244.961 318.752 245.285C319.124 245.609 319.598 245.771 320.174 245.771C320.75 245.771 321.224 245.609 321.596 245.285C321.968 244.949 322.154 244.511 322.154 243.971ZM320.174 247.607C319.49 247.607 318.932 247.781 318.5 248.129C318.08 248.477 317.87 248.975 317.87 249.623C317.87 250.223 318.074 250.715 318.482 251.099C318.902 251.471 319.466 251.657 320.174 251.657C320.882 251.657 321.44 251.465 321.848 251.081C322.256 250.697 322.46 250.211 322.46 249.623C322.46 248.987 322.25 248.495 321.83 248.147C321.41 247.787 320.858 247.607 320.174 247.607ZM326.628 243.557C326.628 242.645 326.892 241.931 327.42 241.415C327.96 240.899 328.65 240.641 329.49 240.641C330.33 240.641 331.014 240.899 331.542 241.415C332.082 241.931 332.352 242.645 332.352 243.557C332.352 244.481 332.082 245.201 331.542 245.717C331.014 246.233 330.33 246.491 329.49 246.491C328.65 246.491 327.96 246.233 327.42 245.717C326.892 245.201 326.628 244.481 326.628 243.557ZM338.184 240.857L331.11 253.457H328.662L335.718 240.857H338.184ZM329.472 242.153C328.812 242.153 328.482 242.621 328.482 243.557C328.482 244.505 328.812 244.979 329.472 244.979C329.796 244.979 330.048 244.865 330.228 244.637C330.408 244.397 330.498 244.037 330.498 243.557C330.498 242.621 330.156 242.153 329.472 242.153ZM334.53 250.739C334.53 249.815 334.794 249.101 335.322 248.597C335.862 248.081 336.552 247.823 337.392 247.823C338.232 247.823 338.91 248.081 339.426 248.597C339.954 249.101 340.218 249.815 340.218 250.739C340.218 251.663 339.954 252.383 339.426 252.899C338.91 253.415 338.232 253.673 337.392 253.673C336.54 253.673 335.85 253.415 335.322 252.899C334.794 252.383 334.53 251.663 334.53 250.739ZM337.374 249.335C336.69 249.335 336.348 249.803 336.348 250.739C336.348 251.687 336.69 252.161 337.374 252.161C338.046 252.161 338.382 251.687 338.382 250.739C338.382 249.803 338.046 249.335 337.374 249.335Z" fill="white"/>
</g>
<g filter="url(#filter2_d_34717_10544)">
<path d="M183.051 338.056C184.203 337.096 185.121 336.298 185.805 335.662C186.489 335.014 187.059 334.342 187.515 333.646C187.971 332.95 188.199 332.266 188.199 331.594C188.199 330.982 188.055 330.502 187.767 330.154C187.479 329.806 187.035 329.632 186.435 329.632C185.835 329.632 185.373 329.836 185.049 330.244C184.725 330.64 184.557 331.186 184.545 331.882H182.097C182.145 330.442 182.571 329.35 183.375 328.606C184.191 327.862 185.223 327.49 186.471 327.49C187.839 327.49 188.889 327.856 189.621 328.588C190.353 329.308 190.719 330.262 190.719 331.45C190.719 332.386 190.467 333.28 189.963 334.132C189.459 334.984 188.883 335.728 188.235 336.364C187.587 336.988 186.741 337.744 185.697 338.632H191.007V340.72H182.115V338.848L183.051 338.056ZM192.595 334.168C192.595 332.092 192.967 330.466 193.711 329.29C194.467 328.114 195.715 327.526 197.455 327.526C199.195 327.526 200.437 328.114 201.181 329.29C201.937 330.466 202.315 332.092 202.315 334.168C202.315 336.256 201.937 337.894 201.181 339.082C200.437 340.27 199.195 340.864 197.455 340.864C195.715 340.864 194.467 340.27 193.711 339.082C192.967 337.894 192.595 336.256 192.595 334.168ZM199.831 334.168C199.831 333.28 199.771 332.536 199.651 331.936C199.543 331.324 199.315 330.826 198.967 330.442C198.631 330.058 198.127 329.866 197.455 329.866C196.783 329.866 196.273 330.058 195.925 330.442C195.589 330.826 195.361 331.324 195.241 331.936C195.133 332.536 195.079 333.28 195.079 334.168C195.079 335.08 195.133 335.848 195.241 336.472C195.349 337.084 195.577 337.582 195.925 337.966C196.273 338.338 196.783 338.524 197.455 338.524C198.127 338.524 198.637 338.338 198.985 337.966C199.333 337.582 199.561 337.084 199.669 336.472C199.777 335.848 199.831 335.08 199.831 334.168ZM203.944 331C203.944 330.088 204.208 329.374 204.736 328.858C205.276 328.342 205.966 328.084 206.806 328.084C207.646 328.084 208.33 328.342 208.858 328.858C209.398 329.374 209.668 330.088 209.668 331C209.668 331.924 209.398 332.644 208.858 333.16C208.33 333.676 207.646 333.934 206.806 333.934C205.966 333.934 205.276 333.676 204.736 333.16C204.208 332.644 203.944 331.924 203.944 331ZM215.5 328.3L208.426 340.9H205.978L213.034 328.3H215.5ZM206.788 329.596C206.128 329.596 205.798 330.064 205.798 331C205.798 331.948 206.128 332.422 206.788 332.422C207.112 332.422 207.364 332.308 207.544 332.08C207.724 331.84 207.814 331.48 207.814 331C207.814 330.064 207.472 329.596 206.788 329.596ZM211.846 338.182C211.846 337.258 212.11 336.544 212.638 336.04C213.178 335.524 213.868 335.266 214.708 335.266C215.548 335.266 216.226 335.524 216.742 336.04C217.27 336.544 217.534 337.258 217.534 338.182C217.534 339.106 217.27 339.826 216.742 340.342C216.226 340.858 215.548 341.116 214.708 341.116C213.856 341.116 213.166 340.858 212.638 340.342C212.11 339.826 211.846 339.106 211.846 338.182ZM214.69 336.778C214.006 336.778 213.664 337.246 213.664 338.182C213.664 339.13 214.006 339.604 214.69 339.604C215.362 339.604 215.698 339.13 215.698 338.182C215.698 337.246 215.362 336.778 214.69 336.778Z" fill="white"/>
</g>
<g filter="url(#filter3_d_34717_10544)">
<path d="M96.4465 319.605C97.5985 318.645 98.5165 317.847 99.2005 317.211C99.8845 316.563 100.455 315.891 100.911 315.195C101.367 314.499 101.595 313.815 101.595 313.143C101.595 312.531 101.451 312.051 101.163 311.703C100.875 311.355 100.431 311.181 99.8305 311.181C99.2305 311.181 98.7685 311.385 98.4445 311.793C98.1205 312.189 97.9525 312.735 97.9405 313.431H95.4925C95.5405 311.991 95.9665 310.899 96.7705 310.155C97.5865 309.411 98.6185 309.039 99.8665 309.039C101.235 309.039 102.285 309.405 103.017 310.137C103.749 310.857 104.115 311.811 104.115 312.999C104.115 313.935 103.863 314.829 103.359 315.681C102.855 316.533 102.279 317.277 101.631 317.913C100.983 318.537 100.137 319.293 99.0925 320.181H104.403V322.269H95.5105V320.397L96.4465 319.605ZM108.186 315.501C106.986 314.877 106.386 313.911 106.386 312.603C106.386 311.955 106.548 311.367 106.872 310.839C107.208 310.299 107.706 309.873 108.366 309.561C109.038 309.237 109.854 309.075 110.814 309.075C111.774 309.075 112.584 309.237 113.244 309.561C113.916 309.873 114.414 310.299 114.738 310.839C115.074 311.367 115.242 311.955 115.242 312.603C115.242 313.263 115.08 313.845 114.756 314.349C114.432 314.841 114 315.225 113.46 315.501C114.12 315.789 114.636 316.209 115.008 316.761C115.38 317.313 115.566 317.967 115.566 318.723C115.566 319.539 115.356 320.253 114.936 320.865C114.528 321.465 113.964 321.927 113.244 322.251C112.524 322.575 111.714 322.737 110.814 322.737C109.914 322.737 109.104 322.575 108.384 322.251C107.676 321.927 107.112 321.465 106.692 320.865C106.284 320.253 106.08 319.539 106.08 318.723C106.08 317.967 106.266 317.313 106.638 316.761C107.01 316.197 107.526 315.777 108.186 315.501ZM112.794 312.963C112.794 312.375 112.614 311.919 112.254 311.595C111.906 311.271 111.426 311.109 110.814 311.109C110.214 311.109 109.734 311.271 109.374 311.595C109.026 311.919 108.852 312.381 108.852 312.981C108.852 313.521 109.032 313.953 109.392 314.277C109.764 314.601 110.238 314.763 110.814 314.763C111.39 314.763 111.864 314.601 112.236 314.277C112.608 313.941 112.794 313.503 112.794 312.963ZM110.814 316.599C110.13 316.599 109.572 316.773 109.14 317.121C108.72 317.469 108.51 317.967 108.51 318.615C108.51 319.215 108.714 319.707 109.122 320.091C109.542 320.463 110.106 320.649 110.814 320.649C111.522 320.649 112.08 320.457 112.488 320.073C112.896 319.689 113.1 319.203 113.1 318.615C113.1 317.979 112.89 317.487 112.47 317.139C112.05 316.779 111.498 316.599 110.814 316.599ZM117.269 312.549C117.269 311.637 117.533 310.923 118.061 310.407C118.601 309.891 119.291 309.633 120.131 309.633C120.971 309.633 121.655 309.891 122.183 310.407C122.723 310.923 122.993 311.637 122.993 312.549C122.993 313.473 122.723 314.193 122.183 314.709C121.655 315.225 120.971 315.483 120.131 315.483C119.291 315.483 118.601 315.225 118.061 314.709C117.533 314.193 117.269 313.473 117.269 312.549ZM128.825 309.849L121.751 322.449H119.303L126.359 309.849H128.825ZM120.113 311.145C119.453 311.145 119.123 311.613 119.123 312.549C119.123 313.497 119.453 313.971 120.113 313.971C120.437 313.971 120.689 313.857 120.869 313.629C121.049 313.389 121.139 313.029 121.139 312.549C121.139 311.613 120.797 311.145 120.113 311.145ZM125.171 319.731C125.171 318.807 125.435 318.093 125.963 317.589C126.503 317.073 127.193 316.815 128.033 316.815C128.873 316.815 129.551 317.073 130.067 317.589C130.595 318.093 130.859 318.807 130.859 319.731C130.859 320.655 130.595 321.375 130.067 321.891C129.551 322.407 128.873 322.665 128.033 322.665C127.181 322.665 126.491 322.407 125.963 321.891C125.435 321.375 125.171 320.655 125.171 319.731ZM128.015 318.327C127.331 318.327 126.989 318.795 126.989 319.731C126.989 320.679 127.331 321.153 128.015 321.153C128.687 321.153 129.023 320.679 129.023 319.731C129.023 318.795 128.687 318.327 128.015 318.327Z" fill="white"/>
</g>
<g filter="url(#filter4_d_34717_10544)">
<path d="M12.0391 209.297C12.0991 208.097 12.5191 207.173 13.2991 206.525C14.0911 205.865 15.1291 205.535 16.4131 205.535C17.2891 205.535 18.0391 205.691 18.6631 206.003C19.2871 206.303 19.7551 206.717 20.0671 207.245C20.3911 207.761 20.5531 208.349 20.5531 209.009C20.5531 209.765 20.3551 210.407 19.9591 210.935C19.5751 211.451 19.1131 211.799 18.5731 211.979V212.051C19.2691 212.267 19.8091 212.651 20.1931 213.203C20.5891 213.755 20.7871 214.463 20.7871 215.327C20.7871 216.047 20.6191 216.689 20.2831 217.253C19.9591 217.817 19.4731 218.261 18.8251 218.585C18.1891 218.897 17.4211 219.053 16.5211 219.053C15.1651 219.053 14.0611 218.711 13.2091 218.027C12.3571 217.343 11.9071 216.335 11.8591 215.003H14.3071C14.3311 215.591 14.5291 216.065 14.9011 216.425C15.2851 216.773 15.8071 216.947 16.4671 216.947C17.0791 216.947 17.5471 216.779 17.8711 216.443C18.2071 216.095 18.3751 215.651 18.3751 215.111C18.3751 214.391 18.1471 213.875 17.6911 213.563C17.2351 213.251 16.5271 213.095 15.5671 213.095H15.0451V211.025H15.5671C17.2711 211.025 18.1231 210.455 18.1231 209.315C18.1231 208.799 17.9671 208.397 17.6551 208.109C17.3551 207.821 16.9171 207.677 16.3411 207.677C15.7771 207.677 15.3391 207.833 15.0271 208.145C14.7271 208.445 14.5531 208.829 14.5051 209.297H12.0391ZM24.9745 212.015C23.7745 211.391 23.1745 210.425 23.1745 209.117C23.1745 208.469 23.3365 207.881 23.6605 207.353C23.9965 206.813 24.4945 206.387 25.1545 206.075C25.8265 205.751 26.6425 205.589 27.6025 205.589C28.5625 205.589 29.3725 205.751 30.0325 206.075C30.7045 206.387 31.2025 206.813 31.5265 207.353C31.8625 207.881 32.0305 208.469 32.0305 209.117C32.0305 209.777 31.8685 210.359 31.5445 210.863C31.2205 211.355 30.7885 211.739 30.2485 212.015C30.9085 212.303 31.4245 212.723 31.7965 213.275C32.1685 213.827 32.3545 214.481 32.3545 215.237C32.3545 216.053 32.1445 216.767 31.7245 217.379C31.3165 217.979 30.7525 218.441 30.0325 218.765C29.3125 219.089 28.5025 219.251 27.6025 219.251C26.7025 219.251 25.8925 219.089 25.1725 218.765C24.4645 218.441 23.9005 217.979 23.4805 217.379C23.0725 216.767 22.8685 216.053 22.8685 215.237C22.8685 214.481 23.0545 213.827 23.4265 213.275C23.7985 212.711 24.3145 212.291 24.9745 212.015ZM29.5825 209.477C29.5825 208.889 29.4025 208.433 29.0425 208.109C28.6945 207.785 28.2145 207.623 27.6025 207.623C27.0025 207.623 26.5225 207.785 26.1625 208.109C25.8145 208.433 25.6405 208.895 25.6405 209.495C25.6405 210.035 25.8205 210.467 26.1805 210.791C26.5525 211.115 27.0265 211.277 27.6025 211.277C28.1785 211.277 28.6525 211.115 29.0245 210.791C29.3965 210.455 29.5825 210.017 29.5825 209.477ZM27.6025 213.113C26.9185 213.113 26.3605 213.287 25.9285 213.635C25.5085 213.983 25.2985 214.481 25.2985 215.129C25.2985 215.729 25.5025 216.221 25.9105 216.605C26.3305 216.977 26.8945 217.163 27.6025 217.163C28.3105 217.163 28.8685 216.971 29.2765 216.587C29.6845 216.203 29.8885 215.717 29.8885 215.129C29.8885 214.493 29.6785 214.001 29.2585 213.653C28.8385 213.293 28.2865 213.113 27.6025 213.113ZM34.0569 209.063C34.0569 208.151 34.3209 207.437 34.8489 206.921C35.3889 206.405 36.0789 206.147 36.9189 206.147C37.7589 206.147 38.4429 206.405 38.9709 206.921C39.5109 207.437 39.7809 208.151 39.7809 209.063C39.7809 209.987 39.5109 210.707 38.9709 211.223C38.4429 211.739 37.7589 211.997 36.9189 211.997C36.0789 211.997 35.3889 211.739 34.8489 211.223C34.3209 210.707 34.0569 209.987 34.0569 209.063ZM45.6129 206.363L38.5389 218.963H36.0909L43.1469 206.363H45.6129ZM36.9009 207.659C36.2409 207.659 35.9109 208.127 35.9109 209.063C35.9109 210.011 36.2409 210.485 36.9009 210.485C37.2249 210.485 37.4769 210.371 37.6569 210.143C37.8369 209.903 37.9269 209.543 37.9269 209.063C37.9269 208.127 37.5849 207.659 36.9009 207.659ZM41.9589 216.245C41.9589 215.321 42.2229 214.607 42.7509 214.103C43.2909 213.587 43.9809 213.329 44.8209 213.329C45.6609 213.329 46.3389 213.587 46.8549 214.103C47.3829 214.607 47.6469 215.321 47.6469 216.245C47.6469 217.169 47.3829 217.889 46.8549 218.405C46.3389 218.921 45.6609 219.179 44.8209 219.179C43.9689 219.179 43.2789 218.921 42.7509 218.405C42.2229 217.889 41.9589 217.169 41.9589 216.245ZM44.8029 214.841C44.1189 214.841 43.7769 215.309 43.7769 216.245C43.7769 217.193 44.1189 217.667 44.8029 217.667C45.4749 217.667 45.8109 217.193 45.8109 216.245C45.8109 215.309 45.4749 214.841 44.8029 214.841Z" fill="white"/>
</g>
<g filter="url(#filter5_d_34717_10544)">
<path d="M69.86 60.776V58.796L75.746 50.372H78.68V58.58H80.264V60.776H78.68V63.332H76.16V60.776H69.86ZM76.322 53.072L72.632 58.58H76.322V53.072ZM81.8684 56.6C81.8684 54.524 82.2404 52.898 82.9844 51.722C83.7404 50.546 84.9884 49.958 86.7284 49.958C88.4684 49.958 89.7104 50.546 90.4544 51.722C91.2104 52.898 91.5884 54.524 91.5884 56.6C91.5884 58.688 91.2104 60.326 90.4544 61.514C89.7104 62.702 88.4684 63.296 86.7284 63.296C84.9884 63.296 83.7404 62.702 82.9844 61.514C82.2404 60.326 81.8684 58.688 81.8684 56.6ZM89.1044 56.6C89.1044 55.712 89.0444 54.968 88.9244 54.368C88.8164 53.756 88.5884 53.258 88.2404 52.874C87.9044 52.49 87.4004 52.298 86.7284 52.298C86.0564 52.298 85.5464 52.49 85.1984 52.874C84.8624 53.258 84.6344 53.756 84.5144 54.368C84.4064 54.968 84.3524 55.712 84.3524 56.6C84.3524 57.512 84.4064 58.28 84.5144 58.904C84.6224 59.516 84.8504 60.014 85.1984 60.398C85.5464 60.77 86.0564 60.956 86.7284 60.956C87.4004 60.956 87.9104 60.77 88.2584 60.398C88.6064 60.014 88.8344 59.516 88.9424 58.904C89.0504 58.28 89.1044 57.512 89.1044 56.6ZM93.2171 53.432C93.2171 52.52 93.4811 51.806 94.0091 51.29C94.5491 50.774 95.2391 50.516 96.0791 50.516C96.9191 50.516 97.6031 50.774 98.1311 51.29C98.6711 51.806 98.9411 52.52 98.9411 53.432C98.9411 54.356 98.6711 55.076 98.1311 55.592C97.6031 56.108 96.9191 56.366 96.0791 56.366C95.2391 56.366 94.5491 56.108 94.0091 55.592C93.4811 55.076 93.2171 54.356 93.2171 53.432ZM104.773 50.732L97.6991 63.332H95.2511L102.307 50.732H104.773ZM96.0611 52.028C95.4011 52.028 95.0711 52.496 95.0711 53.432C95.0711 54.38 95.4011 54.854 96.0611 54.854C96.3851 54.854 96.6371 54.74 96.8171 54.512C96.9971 54.272 97.0871 53.912 97.0871 53.432C97.0871 52.496 96.7451 52.028 96.0611 52.028ZM101.119 60.614C101.119 59.69 101.383 58.976 101.911 58.472C102.451 57.956 103.141 57.698 103.981 57.698C104.821 57.698 105.499 57.956 106.015 58.472C106.543 58.976 106.807 59.69 106.807 60.614C106.807 61.538 106.543 62.258 106.015 62.774C105.499 63.29 104.821 63.548 103.981 63.548C103.129 63.548 102.439 63.29 101.911 62.774C101.383 62.258 101.119 61.538 101.119 60.614ZM103.963 59.21C103.279 59.21 102.937 59.678 102.937 60.614C102.937 61.562 103.279 62.036 103.963 62.036C104.635 62.036 104.971 61.562 104.971 60.614C104.971 59.678 104.635 59.21 103.963 59.21Z" fill="white"/>
</g>
<defs>
<filter id="filter0_d_34717_10544" x="252.528" y="47.4961" width="43.8047" height="21.6445" filterUnits="userSpaceOnUse" color-interpolation-filters="sRGB">
<feFlood flood-opacity="0" result="BackgroundImageFix"/>
<feColorMatrix in="SourceAlpha" type="matrix" values="0 0 0 0 0 0 0 0 0 0 0 0 0 0 0 0 0 0 127 0" result="hardAlpha"/>
<feOffset dy="4"/>
<feGaussianBlur stdDeviation="2"/>
<feComposite in2="hardAlpha" operator="out"/>
<feColorMatrix type="matrix" values="0 0 0 0 0 0 0 0 0 0 0 0 0 0 0 0 0 0 0.25 0"/>
<feBlend mode="normal" in2="BackgroundImageFix" result="effect1_dropShadow_34717_10544"/>
<feBlend mode="normal" in="SourceGraphic" in2="effect1_dropShadow_34717_10544" result="shape"/>
</filter>
<filter id="filter1_d_34717_10544" x="299.342" y="240.084" width="44.876" height="21.6602" filterUnits="userSpaceOnUse" color-interpolation-filters="sRGB">
<feFlood flood-opacity="0" result="BackgroundImageFix"/>
<feColorMatrix in="SourceAlpha" type="matrix" values="0 0 0 0 0 0 0 0 0 0 0 0 0 0 0 0 0 0 127 0" result="hardAlpha"/>
<feOffset dy="4"/>
<feGaussianBlur stdDeviation="2"/>
<feComposite in2="hardAlpha" operator="out"/>
<feColorMatrix type="matrix" values="0 0 0 0 0 0 0 0 0 0 0 0 0 0 0 0 0 0 0.25 0"/>
<feBlend mode="normal" in2="BackgroundImageFix" result="effect1_dropShadow_34717_10544"/>
<feBlend mode="normal" in="SourceGraphic" in2="effect1_dropShadow_34717_10544" result="shape"/>
</filter>
<filter id="filter2_d_34717_10544" x="178.097" y="327.49" width="43.4365" height="21.627" filterUnits="userSpaceOnUse" color-interpolation-filters="sRGB">
<feFlood flood-opacity="0" result="BackgroundImageFix"/>
<feColorMatrix in="SourceAlpha" type="matrix" values="0 0 0 0 0 0 0 0 0 0 0 0 0 0 0 0 0 0 127 0" result="hardAlpha"/>
<feOffset dy="4"/>
<feGaussianBlur stdDeviation="2"/>
<feComposite in2="hardAlpha" operator="out"/>
<feColorMatrix type="matrix" values="0 0 0 0 0 0 0 0 0 0 0 0 0 0 0 0 0 0 0.25 0"/>
<feBlend mode="normal" in2="BackgroundImageFix" result="effect1_dropShadow_34717_10544"/>
<feBlend mode="normal" in="SourceGraphic" in2="effect1_dropShadow_34717_10544" result="shape"/>
</filter>
<filter id="filter3_d_34717_10544" x="91.4922" y="309.039" width="43.3662" height="21.6973" filterUnits="userSpaceOnUse" color-interpolation-filters="sRGB">
<feFlood flood-opacity="0" result="BackgroundImageFix"/>
<feColorMatrix in="SourceAlpha" type="matrix" values="0 0 0 0 0 0 0 0 0 0 0 0 0 0 0 0 0 0 127 0" result="hardAlpha"/>
<feOffset dy="4"/>
<feGaussianBlur stdDeviation="2"/>
<feComposite in2="hardAlpha" operator="out"/>
<feColorMatrix type="matrix" values="0 0 0 0 0 0 0 0 0 0 0 0 0 0 0 0 0 0 0.25 0"/>
<feBlend mode="normal" in2="BackgroundImageFix" result="effect1_dropShadow_34717_10544"/>
<feBlend mode="normal" in="SourceGraphic" in2="effect1_dropShadow_34717_10544" result="shape"/>
</filter>
<filter id="filter4_d_34717_10544" x="7.85938" y="205.535" width="43.7871" height="21.7148" filterUnits="userSpaceOnUse" color-interpolation-filters="sRGB">
<feFlood flood-opacity="0" result="BackgroundImageFix"/>
<feColorMatrix in="SourceAlpha" type="matrix" values="0 0 0 0 0 0 0 0 0 0 0 0 0 0 0 0 0 0 127 0" result="hardAlpha"/>
<feOffset dy="4"/>
<feGaussianBlur stdDeviation="2"/>
<feComposite in2="hardAlpha" operator="out"/>
<feColorMatrix type="matrix" values="0 0 0 0 0 0 0 0 0 0 0 0 0 0 0 0 0 0 0.25 0"/>
<feBlend mode="normal" in2="BackgroundImageFix" result="effect1_dropShadow_34717_10544"/>
<feBlend mode="normal" in="SourceGraphic" in2="effect1_dropShadow_34717_10544" result="shape"/>
</filter>
<filter id="filter5_d_34717_10544" x="65.8604" y="49.959" width="44.9463" height="21.5898" filterUnits="userSpaceOnUse" color-interpolation-filters="sRGB">
<feFlood flood-opacity="0" result="BackgroundImageFix"/>
<feColorMatrix in="SourceAlpha" type="matrix" values="0 0 0 0 0 0 0 0 0 0 0 0 0 0 0 0 0 0 127 0" result="hardAlpha"/>
<feOffset dy="4"/>
<feGaussianBlur stdDeviation="2"/>
<feComposite in2="hardAlpha" operator="out"/>
<feColorMatrix type="matrix" values="0 0 0 0 0 0 0 0 0 0 0 0 0 0 0 0 0 0 0.25 0"/>
<feBlend mode="normal" in2="BackgroundImageFix" result="effect1_dropShadow_34717_10544"/>
<feBlend mode="normal" in="SourceGraphic" in2="effect1_dropShadow_34717_10544" result="shape"/>
</filter>
</defs>
</svg>
